<?xml version="1.0" encoding="UTF-8"?>
<svg width="24px" height="24px" viewBox="0 0 24 24" version="1.1" xmlns="http://www.w3.org/2000/svg" xmlns:xlink="http://www.w3.org/1999/xlink">
    <title>Menu icon/1</title>
    <g id="Page-1" stroke="none" stroke-width="1" fill="none" fill-rule="evenodd">
        <g id="03_1_Find-Work-Challenges" transform="translate(-20.000000, -167.000000)" fill="#9D9D9D" fill-rule="nonzero">
            <g id="Menu-item/open/normal-Copy" transform="translate(0.000000, 165.000000)">
                <g id="Menu-icon/1" transform="translate(20.000000, 2.000000)">
                    <path d="M9.75,14.25 C9.336,14.25 9,13.914 9,13.5 L9,13.147 C8.326,12.993 7.717,12.604 7.295,12.048 C7.174,11.889 7.122,11.692 7.149,11.493 C7.176,11.294 7.279,11.118 7.438,10.997 C7.569,10.897 7.726,10.844 7.891,10.844 C8.127,10.844 8.345,10.952 8.488,11.14 C8.764,11.504 9.204,11.721 9.664,11.721 L9.72,11.72 C10.494,11.72 11.062,11.298 11.062,10.922 C11.062,10.546 10.5,10.125 9.749,10.125 C8.198,10.125 6.937,9.094 6.937,7.827 C6.937,6.775 7.786,5.884 8.999,5.614 L8.999,5.25 C9,4.836 9.336,4.5 9.75,4.5 C10.164,4.5 10.5,4.836 10.5,5.25 L10.5,5.605 C11.175,5.759 11.783,6.147 12.205,6.701 C12.456,7.03 12.392,7.502 12.063,7.752 C11.931,7.852 11.774,7.905 11.609,7.905 C11.373,7.905 11.155,7.797 11.012,7.609 C10.735,7.246 10.295,7.028 9.835,7.028 L9.779,7.03 C9.006,7.03 8.438,7.451 8.438,7.827 C8.438,8.204 8.999,8.625 9.75,8.625 C11.301,8.625 12.563,9.655 12.563,10.922 C12.563,11.974 11.714,12.865 10.5,13.135 L10.5,13.5 C10.5,13.914 10.164,14.25 9.75,14.25 Z" id="Path"></path>
                    <path d="M23.25,24 C23.05,24 22.861,23.922 22.72,23.78 L16.196,17.255 C14.415,18.785 12.163,19.623 9.812,19.623 C4.402,19.624 0,15.222 0,9.812 C0,4.402 4.402,0 9.812,0 C15.222,0 19.624,4.402 19.624,9.812 C19.624,12.162 18.786,14.415 17.257,16.195 L23.781,22.72 C23.923,22.862 24.001,23.05 24.001,23.25 C24.001,23.45 23.923,23.639 23.781,23.78 C23.639,23.921 23.45,24 23.25,24 Z M9.812,1.5 C5.229,1.5 1.5,5.229 1.5,9.812 C1.5,14.395 5.229,18.124 9.812,18.124 C14.395,18.124 18.124,14.395 18.124,9.812 C18.124,5.229 14.395,1.5 9.812,1.5 Z" id="Shape"></path>
                </g>
            </g>
        </g>
    </g>
</svg>