<?xml version="1.0" encoding="UTF-8"?>
<svg width="24px" height="22px" viewBox="0 0 24 22" version="1.1" xmlns="http://www.w3.org/2000/svg" xmlns:xlink="http://www.w3.org/1999/xlink">
    <title>Menu icon/01</title>
    <g id="Page-1" stroke="none" stroke-width="1" fill="none" fill-rule="evenodd">
        <g id="03_1_Find-Work-Challenges" transform="translate(-18.000000, -131.000000)" fill="#0DC188">
            <g id="Menu-icon/01" transform="translate(20.000000, 132.000000)">
                <path d="M11.7188712,-1 C12.701842,-1 13.5532925,-0.318143247 13.7681103,0.641067371 L13.7681103,0.641067371 L14.401,3.47 L17.599,3.47 L17.6,2.47 C17.6,2.1388 17.8688,1.87 18.2,1.87 C18.5312,1.87 18.8,2.1388 18.8,2.47 L18.799,3.47 L19.9,3.47 C20.8928,3.47 21.7,4.2772 21.7,5.27 L21.7,18.87 C21.7,19.8628 20.8928,20.67 19.9,20.67 L0.3,20.67 C-0.6928,20.67 -1.5,19.8628 -1.5,18.87 L-1.5,5.27 C-1.5,4.2772 -0.6928,3.47 0.3,3.47 L1.599,3.47 L1.6,2.47 C1.6,2.1388 1.8688,1.87 2.2,1.87 C2.5312,1.87 2.8,2.1388 2.8,2.47 L2.799,3.47 L5.618,3.47 L6.25198778,0.641067371 C6.45487127,-0.264853768 7.22561533,-0.923382108 8.13870279,-0.993755871 L8.30122687,-1 Z M19.9,4.67 L0.3,4.67 C-0.0312,4.67 -0.3,4.9388 -0.3,5.27 L-0.3,18.87 C-0.3,19.2012 -0.0312,19.47 0.3,19.47 L19.9,19.47 C20.2312,19.47 20.5,19.2012 20.5,18.87 L20.5,5.27 C20.5,4.9388 20.2312,4.67 19.9,4.67 Z M16.1,14.57 C16.4312,14.57 16.7,14.8388 16.7,15.17 C16.7,15.5012 16.4312,15.77 16.1,15.77 L3.7,15.77 C3.3688,15.77 3.1,15.5012 3.1,15.17 C3.1,14.8388 3.3688,14.57 3.7,14.57 L16.1,14.57 Z M16.1,8.57 C16.4312,8.57 16.7,8.8388 16.7,9.17 C16.7,9.5012 16.4312,9.77 16.1,9.77 L3.7,9.77 C3.3688,9.77 3.1,9.5012 3.1,9.17 C3.1,8.8388 3.3688,8.57 3.7,8.57 L16.1,8.57 Z M11.7188712,0.2 L8.30122687,0.2 C7.87995365,0.2 7.51504632,0.492224323 7.42298155,0.903314588 L7.42298155,0.903314588 L6.849,3.466 L13.17,3.466 L12.5971165,0.903314588 C12.5134213,0.529596165 12.2042363,0.254114058 11.8322037,0.207114984 L11.8322037,0.207114984 L11.7188712,0.2 Z" id="Combined-Shape"></path>
            </g>
        </g>
    </g>
</svg>