<?xml version="1.0" encoding="utf-8"?>
<!-- Generator: Adobe Illustrator 23.0.1, SVG Export Plug-In . SVG Version: 6.00 Build 0)  -->
<svg version="1.1" id="Layer_1" xmlns="http://www.w3.org/2000/svg" xmlns:xlink="http://www.w3.org/1999/xlink" x="0px" y="0px"
	 viewBox="0 0 28 28" style="enable-background:new 0 0 28 28;" xml:space="preserve">
<style type="text/css">
	.st0{fill:#2A2A2A;}
</style>
<g>
	<path class="st0" d="M14.42,28c-0.23,0-0.45-0.04-0.66-0.13c-0.43-0.17-0.77-0.51-0.96-0.94c-0.18-0.43-0.19-0.91-0.02-1.34
		l2.54-6.35h-2.21c-0.48,0-0.87-0.39-0.87-0.87s0.39-0.87,0.87-0.87h2.21c0.97,0,1.75,0.78,1.75,1.74c0,0.23-0.04,0.45-0.13,0.66
		l-2.54,6.35l2.21,0c0.48,0,0.87,0.39,0.87,0.87S17.11,28,16.63,28L14.42,28L14.42,28z"/>
	<path class="st0" d="M20.12,28c-0.48,0-0.87-0.39-0.87-0.87v-8.75c0-0.48,0.39-0.87,0.87-0.87c0.48,0,0.87,0.39,0.87,0.87v8.75
		C21,27.61,20.61,28,20.12,28z"/>
	<path class="st0" d="M23.62,28c-0.48,0-0.87-0.39-0.87-0.87v-8.75c0-0.48,0.39-0.87,0.87-0.87h0.88c1.93,0,3.5,1.57,3.5,3.5
		s-1.57,3.5-3.5,3.5h0v2.62C24.5,27.61,24.11,28,23.62,28z M24.5,22.75c0.96,0,1.75-0.79,1.75-1.75s-0.79-1.75-1.75-1.75h0
		L24.5,22.75z"/>
	<path class="st0" d="M2.62,28C1.18,28,0,26.82,0,25.37V2.62C0,1.18,1.18,0,2.62,0h12.4c0.7,0,1.36,0.27,1.86,0.77l6.85,6.85
		c0.5,0.49,0.77,1.15,0.77,1.85v5.4c0,0.48-0.39,0.87-0.87,0.87c-0.48,0-0.87-0.39-0.87-0.87V10.5h-6.12C15.18,10.5,14,9.32,14,7.87
		V1.75H2.62c-0.48,0-0.87,0.39-0.87,0.87v22.75c0,0.48,0.39,0.87,0.87,0.87h7c0.48,0,0.87,0.39,0.87,0.87
		c0,0.48-0.39,0.87-0.87,0.87H2.62z M15.75,7.87c0,0.48,0.39,0.87,0.87,0.87h5.76l-6.64-6.64C15.75,2.11,15.75,7.87,15.75,7.87z"/>
</g>
</svg>
